# xmcd
#
# Track frame offsets: 
#        150
#        23251
#        44376
#        59377
#        73081
#        91389
#        117938
#        140993
#        165398
#        175669
#        195547
#        213270
#        231733
#        249814
#        267046
#        286082
#        302291
#        316749
#
# Disc length: 4457 seconds
#
# Revision: 1
# Processed by: cddbd v1.5.2PL0 Copyright (c) Steve Scherf et al.
# Submitted via: ExactAudioCopyFreeDBPlugin 1.0
#
DISCID=ef116712
DTITLE=B.T. Express - Do It 'Til You're Satisfied and Function At The Ju
DTITLE=ction
DYEAR=2005
DGENRE=Funk
TTITLE0=Express
TTITLE1=If It Don't Turn You On (You Oughta Leave It Alone)
TTITLE2=Once You Get It
TTITLE3=Everything Good To You (Ain't Always Good For You)
TTITLE4=Mental Telepathy
TTITLE5=Do It ('Til You're Satisfied)
TTITLE6=Do You Like It
TTITLE7=That's What It Want For You Baby
TTITLE8=This House Is Smokin'
TTITLE9=Funky Music
TTITLE10=Expose Yourself
TTITLE11=Scratch My Itch
TTITLE12=Eyes
TTITLE13=We Got It Together
TTITLE14=Sunshine
TTITLE15=The Door To My Mind
TTITLE16=Star Gazer
TTITLE17=How Big Can You Dream
EXTD=
EXTT0=
EXTT1=
EXTT2=
EXTT3=
EXTT4=
EXTT5=
EXTT6=
EXTT7=
EXTT8=
EXTT9=
EXTT10=
EXTT11=
EXTT12=
EXTT13=
EXTT14=
EXTT15=
EXTT16=
EXTT17=
PLAYORDER=
